<?xml version="1.0" encoding="utf-8"?>
<!-- Generator: Adobe Illustrator 24.0.0, SVG Export Plug-In . SVG Version: 6.00 Build 0)  -->
<svg version="1.1" id="Layer_1" xmlns="http://www.w3.org/2000/svg" xmlns:xlink="http://www.w3.org/1999/xlink" x="0px" y="0px"
	 viewBox="0 0 56.22 47.87" style="enable-background:new 0 0 56.22 47.87;" xml:space="preserve">
<style type="text/css">
	.st0{fill-rule:evenodd;clip-rule:evenodd;fill:#F1F2F2;}
	.st1{fill-rule:evenodd;clip-rule:evenodd;fill:#FBB040;}
	.st2{fill:#FFFFFF;}
	.st3{font-family:'Verdana';}
	.st4{font-size:36px;}
</style>
<g>
	<path class="st0" d="M8.35,23.94c0-11.79,8.53-21.59,19.76-23.57C26.76,0.13,25.36,0,23.94,0C10.72,0,0,10.72,0,23.94
		c0,13.22,10.72,23.94,23.94,23.94c1.43,0,2.82-0.13,4.18-0.37C16.88,45.53,8.35,35.73,8.35,23.94z"/>
	<path class="st1" d="M32.29,0c-1.43,0-2.82,0.13-4.18,0.37c11.23,1.98,19.76,11.77,19.76,23.57c0,11.79-8.53,21.59-19.76,23.57
		c1.36,0.24,2.75,0.37,4.18,0.37c13.22,0,23.94-10.72,23.94-23.94C56.22,10.72,45.51,0,32.29,0z"/>
	<text transform="matrix(1 0 0 1 16.1057 36.4573)" class="st2 st3 st4">S</text>
</g>
</svg>
